<?xml version="1.0" encoding="UTF-8" standalone="no"?>
<svg
   version="1.1"
   width="24"
   height="24"
   id="svg1"
   sodipodi:docname="next.svg"
   inkscape:version="1.4.2 (ebf0e940d0, 2025-05-08)"
   xmlns:inkscape="http://www.inkscape.org/namespaces/inkscape"
   xmlns:sodipodi="http://sodipodi.sourceforge.net/DTD/sodipodi-0.dtd"
   xmlns="http://www.w3.org/2000/svg"
   xmlns:svg="http://www.w3.org/2000/svg">
  <defs
     id="defs1" />
  <sodipodi:namedview
     id="namedview1"
     pagecolor="#ffffff"
     bordercolor="#000000"
     borderopacity="0.25"
     inkscape:showpageshadow="2"
     inkscape:pageopacity="0.0"
     inkscape:pagecheckerboard="0"
     inkscape:deskcolor="#d1d1d1"
     inkscape:zoom="1.8261719"
     inkscape:cx="255.7262"
     inkscape:cy="256"
     inkscape:window-width="1920"
     inkscape:window-height="1168"
     inkscape:window-x="0"
     inkscape:window-y="0"
     inkscape:window-maximized="1"
     inkscape:current-layer="svg1" />
  <path
     d="m 11.529838,-0.43962354 c 0.08246,-5.16e-5 0.08246,-5.16e-5 0.166578,-1.0424e-4 0.863119,0.001418 1.676985,0.0465045 2.517953,0.25452057 0.051,0.0122739 0.102006,0.0245479 0.154555,0.0371938 1.934023,0.47587401 3.753473,1.39400501 5.210851,2.76193411 0.09344,0.087328 0.188951,0.1693183 0.287315,0.2509437 0.981574,0.8593775 1.737134,1.9828472 2.348234,3.1261041 0.01604,0.029705 0.03207,0.05941 0.04859,0.090014 0.585693,1.0934442 0.951774,2.294067 1.167925,3.5127547 0.0083,0.041997 0.01666,0.083995 0.02524,0.1272652 0.09407,0.5404776 0.08575,1.0853876 0.08567,1.6324136 1.87e-4,0.171138 0.0019,0.342217 0.0037,0.513345 0.0149,3.106094 -1.350693,6.03236 -3.499413,8.234798 -0.290808,0.293078 -0.594342,0.560662 -0.919791,0.815167 -0.03667,0.03046 -0.07334,0.06092 -0.111125,0.0923 -0.335032,0.277172 -0.694201,0.513778 -1.058606,0.749906 -0.04119,0.02696 -0.08239,0.05392 -0.124832,0.0817 -0.236782,0.152248 -0.236782,0.152248 -0.34306,0.152248 0,-0.03088 0,-0.06176 0,-0.09358 0.138964,-0.0772 0.277928,-0.154404 0.421103,-0.233946 -0.03905,-0.156214 -0.0624,-0.225235 -0.146536,-0.351833 -0.02096,-0.03183 -0.04193,-0.06366 -0.06352,-0.09645 -0.03462,-0.05168 -0.03462,-0.05168 -0.06994,-0.104414 -0.02427,-0.0367 -0.04855,-0.07341 -0.07356,-0.111221 -0.08075,-0.121979 -0.161878,-0.243708 -0.242998,-0.365444 -0.05697,-0.08591 -0.113916,-0.171847 -0.170833,-0.257798 -0.119801,-0.180862 -0.239726,-0.361641 -0.359727,-0.54237 -0.178164,-0.268506 -0.35552,-0.537537 -0.532616,-0.806749 -0.02847,-0.04328 -0.05695,-0.08656 -0.08628,-0.131152 -0.05721,-0.08696 -0.114413,-0.173916 -0.171619,-0.260874 -0.454195,-0.690227 -0.91052,-1.378981 -1.369535,-2.066011 -0.275596,-0.412571 -0.549001,-0.826416 -0.819273,-1.242503 -0.314612,-0.483865 -0.632137,-0.96581 -0.949709,-1.447735 -0.02943,-0.04466 -0.05886,-0.08932 -0.08917,-0.13533 -0.386725,-0.58673 -0.774978,-1.172407 -1.165362,-1.756709 -0.29684,-0.444292 -0.591823,-0.889619 -0.882918,-1.337707 C 10.423181,10.19905 10.12699,9.7485445 9.8305092,9.2982166 9.7713634,9.2083579 9.7122466,9.1184805 9.653162,9.0285816 9.3472817,8.5632311 9.0398241,8.0989754 8.7272375,7.6380947 8.6887892,7.5809665 8.6887892,7.5809665 8.6495643,7.522684 8.6258971,7.4879855 8.6022299,7.4532867 8.5778455,7.4175369 8.5571337,7.3870149 8.5364219,7.3564934 8.5150824,7.3250463 8.4619345,7.2472995 8.4619345,7.2472995 8.3657177,7.207488 7.781262,7.1179128 7.781262,7.1179128 7.2345034,7.2742899 7.1026273,7.4603504 7.1224863,7.6382093 7.1236561,7.861086 c -4.829e-4,0.047713 -9.662e-4,0.095426 -0.00146,0.1445852 -0.00139,0.1594964 -0.00145,0.3189653 -0.00151,0.4784679 -7.136e-4,0.1130343 -0.00151,0.2260681 -0.00238,0.3391015 -0.00188,0.2726196 -0.0029,0.5452323 -0.00349,0.8178576 -7.051e-4,0.3140155 -0.0023,0.6280248 -0.00392,0.9420368 -0.00259,0.505774 -0.00448,1.011548 -0.00584,1.517328 -0.00157,0.583837 -0.00479,1.167638 -0.00942,1.751459 -0.00252,0.319539 -0.00435,0.63908 -0.00587,0.958625 -0.001,0.208762 -0.00227,0.417514 -0.00421,0.626269 -0.00176,0.192818 -0.00263,0.38562 -0.00277,0.578446 -2.012e-4,0.06938 -7.225e-4,0.138757 -0.00159,0.20813 -0.00113,0.09348 -9.896e-4,0.186965 -7.809e-4,0.280447 -2.761e-4,0.05182 -5.489e-4,0.103635 -8.319e-4,0.157023 0.028225,0.171188 0.090594,0.24886 0.2099781,0.37236 0.139777,0.06989 0.2825885,0.05542 0.4357245,0.05556 0.061581,6.65e-4 0.1231617,0.0013 0.1866085,0.002 0.2144501,-0.01336 0.3479436,-0.04528 0.500608,-0.19794 0.078781,-0.364938 0.054743,-0.759838 0.056396,-1.130915 4.492e-4,-0.06553 9.175e-4,-0.131054 0.0014,-0.196581 0.00126,-0.176488 0.00224,-0.352977 0.00318,-0.529468 0.00103,-0.184965 0.00231,-0.369926 0.00356,-0.554889 0.00233,-0.349629 0.00443,-0.699258 0.00646,-1.048889 0.00232,-0.398306 0.00488,-0.796611 0.00747,-1.194916 0.00531,-0.818766 0.010314,-1.637533 0.015109,-2.4563021 0.1777658,0.059255 0.1989163,0.1182457 0.2982812,0.2748871 0.033354,0.05151 0.066708,0.103016 0.101072,0.156086 0.018464,0.02857 0.036927,0.05715 0.055951,0.08659 0.1077713,0.164622 0.2198278,0.326308 0.3313398,0.488408 0.9231656,1.346442 1.8336356,2.701591 2.7463186,4.055146 0.113067,0.167672 0.22616,0.335328 0.339256,0.502981 0.07872,0.116721 0.157409,0.233468 0.236093,0.350216 0.143121,0.212259 0.286549,0.424306 0.430242,0.636178 0.02282,0.03367 0.04564,0.06735 0.06915,0.102041 0.264337,0.389418 0.533801,0.77198 0.822765,1.143722 0.22952,0.298186 0.455098,0.597909 0.671921,0.905433 0.164462,0.232716 0.335142,0.460444 0.506685,0.68797 0.187868,0.249384 0.373499,0.500349 0.558444,0.751906 0.30685,0.417041 0.615861,0.832215 0.930301,1.243569 0.03405,0.04458 0.06811,0.08916 0.103196,0.135091 0.06863,0.08978 0.137335,0.17951 0.20612,0.269175 0.03146,0.04114 0.06292,0.08228 0.09534,0.124672 0.02844,0.0371 0.05688,0.0742 0.08618,0.112426 0.06735,0.09191 0.06735,0.09191 0.11414,0.18549 0.0772,0 0.154404,0 0.233946,0 -0.24515,0.490298 -1.548187,0.822854 -2.052877,0.99427 -0.33116,0.107817 -0.667946,0.194429 -1.005968,0.277811 -0.04468,0.01114 -0.08937,0.02229 -0.13541,0.03377 -0.839005,0.198576 -1.655693,0.262146 -2.516896,0.259066 -0.168652,-3.75e-4 -0.33723,9.54e-4 -0.505874,0.0024 C 8.4411157,23.568669 5.5760659,22.459508 3.546429,20.542413 3.4861982,20.49051 3.4257653,20.438842 3.3651209,20.387424 2.9308576,20.007553 2.5442365,19.593425 2.189542,19.138737 2.1526295,19.092717 2.1157175,19.046697 2.0776867,18.999283 0.81858114,17.41618 -0.00475409,15.516627 -0.33707539,13.524031 c -0.008263,-0.04234 -0.016526,-0.08469 -0.0250397,-0.128316 -0.0940763,-0.540225 -0.0859513,-1.084568 -0.0858793,-1.631362 -1.8715e-4,-0.171138 -0.001904,-0.342217 -0.003678,-0.513345 C -0.46195064,9.1079585 0.18608366,6.9521256 1.3473366,5.1487627 1.3673386,5.1176933 1.38734,5.0866239 1.4079479,5.054613 2.0489554,4.0706586 2.8327696,3.1441396 3.7335864,2.3881993 c 0.034696,-0.029392 0.034696,-0.029392 0.070092,-0.059378 1.6332803,-1.375471 3.6637855,-2.33087229 5.7785582,-2.65439664 0.050068,-0.008161 0.1001367,-0.0163225 0.1517223,-0.0247311 0.5968841,-0.0870441 1.1935621,-0.0894813 1.7958791,-0.0893171 z M 14.534411,6.9877144 C 14.39191,7.2169417 14.419539,7.4858346 14.4189,7.7469002 c -8.54e-4,0.059003 -0.0017,0.1180066 -0.0026,0.1787975 -0.0022,0.1614742 -0.0033,0.322933 -0.0039,0.4844213 -4.44e-4,0.101256 -0.0011,0.2025084 -0.0019,0.303763 -0.0026,0.3543511 -0.004,0.7086895 -0.0046,1.0630485 -5.64e-4,0.3284305 -0.0038,0.6567645 -0.0082,0.9851645 -0.0037,0.283257 -0.0053,0.566482 -0.0055,0.849763 -1.36e-4,0.168608 -0.0011,0.337112 -0.0041,0.505695 -0.01282,0.755396 0.0019,1.345147 0.511555,1.938538 0.09901,0.119256 0.178192,0.248155 0.260474,0.379416 0.05804,0.08902 0.116104,0.178028 0.17418,0.267028 0.02958,0.04539 0.05917,0.09077 0.08965,0.137534 0.05594,0.08576 0.111945,0.171474 0.168034,0.257135 0.04464,0.06824 0.0891,0.136583 0.133285,0.205114 0.04101,0.06308 0.08359,0.125146 0.126637,0.18686 0.01544,0 0.03088,0 0.04679,0 0.0055,-1.087148 0.0096,-2.174294 0.01212,-3.261453 0.0012,-0.504783 0.0029,-1.009558 0.0055,-1.514336 0.0023,-0.439948 0.0038,-0.8798889 0.0044,-1.3198422 3.05e-4,-0.232971 0.001,-0.4659242 0.0027,-0.6988895 0.0016,-0.2192912 0.0021,-0.4385572 0.0017,-0.657854 6.6e-5,-0.080464 5.3e-4,-0.1609291 0.0014,-0.2413888 0.0012,-0.1099598 8.83e-4,-0.2198255 2.43e-4,-0.3297877 2.15e-4,-0.061503 4.3e-4,-0.1230064 6.54e-4,-0.1863735 -0.03789,-0.2176457 -0.106287,-0.2925683 -0.262733,-0.446079 -0.130351,-0.047766 -0.130351,-0.047766 -0.280735,-0.046789 -0.03299,-0.00175 -0.06598,-0.0035 -0.09998,-0.0053 -0.280241,-0.00904 -0.546686,-0.00984 -0.749713,0.2066296 z"
     fill="#000000"
     id="path1"
     style="stroke-width:0.999998" />
</svg>
