<?xml version="1.0" encoding="UTF-8" standalone="no"?>
<svg
   version="1.1"
   width="25"
   height="25"
   id="svg2"
   sodipodi:docname="python_5968350.svg"
   inkscape:version="1.4.2 (ebf0e940d0, 2025-05-08)"
   xmlns:inkscape="http://www.inkscape.org/namespaces/inkscape"
   xmlns:sodipodi="http://sodipodi.sourceforge.net/DTD/sodipodi-0.dtd"
   xmlns="http://www.w3.org/2000/svg"
   xmlns:svg="http://www.w3.org/2000/svg">
  <defs
     id="defs2" />
  <sodipodi:namedview
     id="namedview2"
     pagecolor="#ffffff"
     bordercolor="#000000"
     borderopacity="0.25"
     inkscape:showpageshadow="2"
     inkscape:pageopacity="0.0"
     inkscape:pagecheckerboard="0"
     inkscape:deskcolor="#d1d1d1"
     inkscape:zoom="1.8261719"
     inkscape:cx="255.7262"
     inkscape:cy="256"
     inkscape:window-width="1920"
     inkscape:window-height="1168"
     inkscape:window-x="0"
     inkscape:window-y="0"
     inkscape:window-maximized="1"
     inkscape:current-layer="svg2" />
  <path
     d="m 13.580111,-0.31600663 c 0.05837,7.034e-5 0.116735,1.4068e-4 0.176872,2.1315e-4 0.836839,0.001815 1.663023,0.0118043 2.489517,0.15611273 0.06198,0.010608 0.06198,0.010608 0.125217,0.0214303 1.058812,0.18926012 1.972063,0.64485419 2.611407,1.52855565 0.345863,0.5426344 0.439536,1.0806741 0.43825,1.7115195 3.77e-4,0.091929 3.77e-4,0.091929 7.31e-4,0.1857141 6.28e-4,0.1672338 6.61e-4,0.3344626 5.38e-4,0.5016974 -4.7e-5,0.1401268 1.89e-4,0.2802526 4.25e-4,0.4203792 5.24e-4,0.3309544 5.43e-4,0.6619065 2.36e-4,0.9928615 -2.83e-4,0.3401302 2.83e-4,0.680251 0.0013,1.0203798 8.35e-4,0.2931107 0.0011,0.586218 9.62e-4,0.8793297 -9.4e-5,0.1745757 3.4e-5,0.3491449 6.94e-4,0.5237193 7.13e-4,0.1950338 2.83e-4,0.3900497 -2.83e-4,0.585084 3.77e-4,0.056945 7.22e-4,0.1138892 0.0011,0.1725592 -0.005,0.8107898 -0.286756,1.5764629 -0.848316,2.1679511 -0.486301,0.47834 -1.157963,0.808572 -1.845923,0.810357 -0.08045,3.77e-4 -0.08045,3.77e-4 -0.162527,7.79e-4 -0.08763,9.4e-5 -0.08763,9.4e-5 -0.177036,1.41e-4 -0.095,3.78e-4 -0.190002,7.36e-4 -0.285004,0.0011 -0.101974,3.77e-4 -0.203948,6.18e-4 -0.305922,8.49e-4 -0.213335,5.05e-4 -0.426666,0.0015 -0.639998,0.0025 -0.606615,0.0029 -1.21323,0.0055 -1.81985,0.007 -0.335158,8.73e-4 -0.670311,0.0022 -1.005465,0.0042 -0.176957,9.86e-4 -0.353906,0.0017 -0.530865,0.0018 -1.33364,-0.0067 -1.33364,-0.0067 -2.5913855,0.399808 -0.046477,0.02324 -0.092955,0.04648 -0.1408408,0.07042 -0.8293127,0.449032 -1.4106813,1.170432 -1.7028467,2.066065 -0.125762,0.437258 -0.1668914,0.849302 -0.1671646,1.303974 -7.079e-4,0.06882 -0.0015,0.137643 -0.00236,0.206463 -0.00203,0.178512 -0.003,0.357013 -0.00371,0.535535 -9.344e-4,0.183215 -0.00291,0.366419 -0.0048,0.549626 -0.00353,0.357537 -0.00592,0.715069 -0.00756,1.072621 -0.3289371,0.0048 -0.6578651,0.0081 -0.98683,0.01037 -0.1115797,9.4e-4 -0.2231565,0.0022 -0.3347276,0.0039 -1.0410417,0.01498 -1.9306311,-0.05013 -2.7296425,-0.799926 -0.9856242,-1.074902 -1.2795079,-2.668753 -1.4231555,-4.075165 -0.00785,-0.07391 -0.00785,-0.07391 -0.015854,-0.14932 -0.1743035,-1.898499 0.094517,-4.1685692 1.333932,-5.6714223 0.6194115,-0.6712508 1.5648167,-1.0383701 2.4653505,-1.082062 0.215356,-0.00627 0.4306232,-0.0049 0.6460391,-0.00341 0.081935,4.01e-5 0.1638701,1.74e-5 0.2458051,-4.72e-5 0.2201234,-4.06e-5 0.4402354,7.834e-4 0.6603565,0.00178 0.2308974,8.92e-4 0.4617953,9.675e-4 0.6926942,0.00114 0.436208,4.247e-4 0.8724108,0.0016 1.3086165,0.00303 0.497042,0.00159 0.9940843,0.00236 1.4911283,0.00307 1.021502,0.00148 2.042999,0.00399 3.064497,0.00712 0,-0.2180304 0,-0.4360608 0,-0.6606981 -1.899979,0 -3.7999576,0 -5.7575117,0 0,-3.6719526 0,-3.6719526 0.6135054,-4.34173025 0.6382421,-0.59891738 1.4903844,-0.80346656 2.3271893,-0.952712 0.04072,-0.007308 0.08143,-0.0146155 0.123385,-0.0221446 0.888077,-0.14834907 1.770927,-0.17519758 2.669834,-0.17252534 z M 9.5451334,1.9167989 c -0.2272109,0.2947602 -0.2325203,0.579426 -0.1887708,0.9438544 0.080249,0.2925054 0.2678619,0.4966752 0.5191199,0.6606981 0.2844005,0.1374914 0.6092065,0.1480339 0.9130685,0.0636 0.274237,-0.1231161 0.47341,-0.3301032 0.603735,-0.5996794 0.09217,-0.2832195 0.09093,-0.6199524 -0.03023,-0.8944495 C 11.217217,1.843931 10.996838,1.6653206 10.754447,1.5186104 10.261308,1.4129376 9.8723531,1.5259533 9.5451334,1.9167989 Z"
     fill="#3d79aa"
     id="path1"
     style="stroke-width:1" />
  <path
     d="m 20.06911,5.8337949 c 0.359281,-0.00361 0.718557,-0.00608 1.077851,-0.00778 0.122024,-7.085e-4 0.244047,-0.00167 0.366066,-0.0029 0.1762,-0.00173 0.352384,-0.00252 0.528591,-0.00315 0.05385,-7.307e-4 0.107706,-0.00146 0.16319,-0.00221 0.721064,-1.485e-4 1.393639,0.2101337 1.922139,0.7158199 1.030016,1.1098623 1.323933,2.903051 1.463711,4.3498412 0.0078,0.07346 0.0078,0.07346 0.01567,0.148399 0.17389,1.880333 -0.19018,4.173153 -1.390158,5.688566 -0.405541,0.473836 -0.883307,0.763559 -1.504268,0.864401 -0.124562,0.0042 -0.247832,0.0062 -0.372366,0.0057 -0.0372,4.1e-5 -0.0744,9.4e-5 -0.112735,1.42e-4 -0.124487,9.4e-5 -0.248971,-1.89e-4 -0.373458,-4.25e-4 -0.0893,-1.4e-5 -0.178609,-6e-6 -0.267914,2.1e-5 -0.242378,1.3e-5 -0.484754,-2.83e-4 -0.727132,-5.95e-4 -0.253323,-2.83e-4 -0.506647,-3.3e-4 -0.75997,-3.77e-4 -0.479677,-1.42e-4 -0.959354,-5.34e-4 -1.439031,-0.001 -0.546107,-5.28e-4 -1.092214,-7.88e-4 -1.63832,-0.001 -1.123359,-5.29e-4 -2.246717,-0.0014 -3.370076,-0.0024 0,0.233604 0,0.467208 0,0.707891 1.899979,0 3.799958,0 5.757512,0 0,3.263543 0,3.263543 -0.767988,4.081617 -1.132919,1.04365 -2.994102,1.482883 -4.490866,1.498369 -0.03713,4.72e-4 -0.07426,9.25e-4 -0.112511,0.0014 -1.839439,0.01816 -4.018155,-0.207601 -5.420663,-1.542366 -0.4661612,-0.467344 -0.7741012,-1.081101 -0.7771338,-1.748611 -3.304e-4,-0.05125 -6.749e-4,-0.102503 -0.00102,-0.155308 -1.416e-4,-0.05577 -2.36e-4,-0.111547 -3.776e-4,-0.169011 -3.303e-4,-0.05912 -6.182e-4,-0.118242 -9.391e-4,-0.179153 -9.297e-4,-0.195799 -0.00148,-0.391595 -0.00195,-0.587395 -1.887e-4,-0.06772 -3.775e-4,-0.135449 -5.852e-4,-0.203173 -8.966e-4,-0.318603 -0.00157,-0.637205 -0.00196,-0.955809 -4.719e-4,-0.365982 -0.0017,-0.731951 -0.00361,-1.097929 -0.00143,-0.283932 -0.00212,-0.56786 -0.00228,-0.851796 -9.44e-5,-0.169048 -5.239e-4,-0.338082 -0.00172,-0.507126 -0.00756,-1.124906 0.046099,-2.097524 0.858623,-2.958392 0.5749635,-0.581614 1.2596114,-0.863071 2.0720847,-0.867923 0.05782,1.42e-4 0.115634,2.36e-4 0.175203,3.78e-4 0.09516,-3.78e-4 0.190309,-7.6e-4 0.285464,-0.0011 0.101562,-3.31e-4 0.203122,-4.25e-4 0.304684,-4.72e-4 0.212744,-9.5e-5 0.42548,-9.49e-4 0.638221,-0.0019 0.528525,-0.0023 1.057052,-0.0038 1.58558,-0.0048 0.410747,-7.84e-4 0.821487,-0.0019 1.232229,-0.0039 0.210756,-0.001 0.421501,-0.0014 0.632259,-0.0013 0.132087,-9.4e-5 0.264167,-7.5e-4 0.396251,-0.0016 0.08886,-3.77e-4 0.177711,-9.4e-5 0.266566,2.36e-4 1.056526,-0.0088 1.969509,-0.359702 2.744348,-1.08619 0.73714,-0.765828 1.033743,-1.71135 1.034368,-2.7513726 7.1e-4,-0.068822 0.0015,-0.137643 0.0024,-0.2064631 0.002,-0.178512 0.003,-0.3570131 0.0037,-0.5355347 9.33e-4,-0.1832151 0.0029,-0.3664189 0.0048,-0.5496263 0.0035,-0.3575107 0.0059,-0.7150429 0.0076,-1.0725941 z M 16.024915,20.183884 c -0.189017,0.292168 -0.23773,0.547854 -0.20315,0.893159 0.09825,0.386119 0.344963,0.621109 0.678396,0.822924 0.355885,0.07626 0.640806,0.04502 0.960814,-0.133099 0.226557,-0.161715 0.350173,-0.360173 0.457917,-0.613136 0.05476,-0.352882 0.0195,-0.641989 -0.187849,-0.937771 -0.194733,-0.23441 -0.41201,-0.38725 -0.718215,-0.432293 -0.40562,-0.013 -0.723088,0.0762 -0.987913,0.400216 z"
     fill="#ffde57"
     id="path2"
     style="stroke-width:1" />
</svg>
