<?xml version="1.0" encoding="UTF-8" standalone="no"?>
<svg
   version="1.1"
   width="24"
   height="21"
   id="svg2"
   sodipodi:docname="vue.svg"
   inkscape:version="1.4.2 (ebf0e940d0, 2025-05-08)"
   xmlns:inkscape="http://www.inkscape.org/namespaces/inkscape"
   xmlns:sodipodi="http://sodipodi.sourceforge.net/DTD/sodipodi-0.dtd"
   xmlns="http://www.w3.org/2000/svg"
   xmlns:svg="http://www.w3.org/2000/svg">
  <defs
     id="defs2" />
  <sodipodi:namedview
     id="namedview2"
     pagecolor="#ffffff"
     bordercolor="#000000"
     borderopacity="0.25"
     inkscape:showpageshadow="2"
     inkscape:pageopacity="0.0"
     inkscape:pagecheckerboard="0"
     inkscape:deskcolor="#d1d1d1"
     inkscape:zoom="1.9438669"
     inkscape:cx="277.28235"
     inkscape:cy="240.5"
     inkscape:window-width="1920"
     inkscape:window-height="1168"
     inkscape:window-x="0"
     inkscape:window-y="0"
     inkscape:window-maximized="1"
     inkscape:current-layer="svg2" />
  <path
     d="m 0,0.05052377 c 1.2020902,-0.00909 2.4041753,-0.015953 3.606293,-0.020165 0.5581546,-0.00201 1.1162878,-0.00475 1.6744288,-0.0092 0.4864246,-0.00388 0.9728341,-0.00639 1.4592742,-0.00726 0.2576234,-5.078e-4 0.5152026,-0.0017 0.7728117,-0.00453 0.2424345,-0.00264 0.4848068,-0.00346 0.7272544,-0.00287 0.089012,-1.072e-4 0.1780263,-8.825e-4 0.2670261,-0.00237 0.6738158,-0.010733 0.6738158,-0.010733 0.855782,0.131375 0.068458,0.10046494 0.1109228,0.18981689 0.1506426,0.30420766 0.025795,0.0434797 0.05159,0.0869595 0.078167,0.13175675 0.031878,0.0578615 0.031878,0.0578615 0.0644,0.11689188 0.036368,0.0655906 0.036368,0.0655906 0.073469,0.13250633 0.025032,0.0454621 0.050065,0.0909242 0.075855,0.13776392 0.1726166,0.31087249 0.3455132,0.62124819 0.5270272,0.92702699 0.17884,0.3014142 0.354736,0.6044433 0.529729,0.908108 0.04087,0.070832 0.04087,0.070832 0.08256,0.1430955 0.130426,0.2261874 0.260601,0.4525088 0.390068,0.679246 0.04442,0.077753 0.08891,0.1554627 0.133423,0.2331589 0.056,0.097794 0.111857,0.195672 0.167546,0.2936444 0.03807,0.066395 0.03807,0.066395 0.07691,0.1341321 0.02214,0.038815 0.04428,0.07763 0.06709,0.1176203 0.07288,0.1162854 0.154234,0.2206383 0.241861,0.3261297 0.01779,-0.031244 0.03558,-0.062488 0.05391,-0.094679 0.311244,-0.5463812 0.622925,-1.0924253 0.940688,-1.6350507 0.218653,-0.3734039 0.434402,-0.7483834 0.648649,-1.1243242 0.226494,-0.397235 0.453978,-0.7938564 0.683784,-1.18918915 0.02511,-0.0433683 0.05022,-0.0867365 0.0761,-0.13141889 0.02333,-0.0400236 0.04666,-0.0800473 0.07069,-0.12128379 0.02028,-0.0348674 0.04056,-0.0697348 0.06146,-0.10565878 0.02937,-0.0473678 0.02937,-0.0473678 0.05932,-0.0956926 0.01506,-0.0300852 0.03012,-0.0601704 0.04564,-0.0911673 0.109094,-0.1061309 0.194953,-0.1025637 0.343043,-0.1041333 0.03563,5.039e-4 0.07126,0.00101 0.107967,0.00153 0.0379,-1.478e-4 0.0758,-2.955e-4 0.114849,-4.478e-4 0.127498,-2.858e-4 0.254957,6.68e-4 0.382452,0.00161 0.09119,4.88e-5 0.182382,2.14e-5 0.273572,-7.66e-5 0.248014,-4.97e-5 0.496013,9.693e-4 0.744023,0.00218 0.259018,0.00108 0.518036,0.00118 0.777055,0.00139 0.490692,5.382e-4 0.981377,0.00196 1.472066,0.00369 0.558546,0.00193 1.117092,0.00288 1.67564,0.00375 1.149162,0.00181 2.298319,0.00485 3.447476,0.0087 -0.055,0.17003048 -0.113182,0.31855387 -0.204561,0.47229728 -0.02369,0.0401839 -0.04737,0.0803678 -0.07178,0.12176942 -0.02565,0.042985 -0.05129,0.08597 -0.07771,0.13025759 -0.05521,0.0935643 -0.110388,0.18714602 -0.165541,0.28074322 -0.02851,0.04826 -0.05702,0.096519 -0.0864,0.1462415 -0.137323,0.2333942 -0.272437,0.4680483 -0.407517,0.7027449 -0.05445,0.094483 -0.108895,0.1889647 -0.163345,0.2834459 -0.02703,0.046922 -0.05406,0.093844 -0.0819,0.1421875 -0.13526,0.23476 -0.270689,0.4694235 -0.406102,0.7040963 -0.05405,0.093693 -0.108109,0.1873868 -0.162162,0.281081 -0.108108,0.1873874 -0.216216,0.3747748 -0.324324,0.5621621 -0.02676,0.046385 -0.05352,0.092771 -0.08109,0.1405617 -0.05402,0.093625 -0.108035,0.1872485 -0.162057,0.2808699 -0.13575,0.2352672 -0.271443,0.4705671 -0.407021,0.7059331 -0.260424,0.4519675 -0.52158,0.9034676 -0.784966,1.3537162 -0.21947,0.3752484 -0.436112,0.7520458 -0.651351,1.1297297 -0.239569,0.4203744 -0.48146,0.8393059 -0.725771,1.2569465 -0.266128,0.4550901 -0.529308,0.9118663 -0.792451,1.3686861 -0.135261,0.234761 -0.27069,0.469424 -0.406102,0.704097 -0.05406,0.09369 -0.108109,0.187387 -0.162163,0.281081 -1.405405,2.436035 -2.81081,4.872071 -4.216216,7.308107 -0.02678,0.04643 -0.05357,0.09286 -0.08117,0.140699 -0.05376,0.09317 -0.107531,0.18634 -0.161318,0.279497 -0.125077,0.21667 -0.250029,0.433409 -0.374467,0.650448 -0.04361,0.07605 -0.08727,0.152073 -0.130938,0.228089 -0.05443,0.09477 -0.108767,0.189585 -0.163007,0.284459 -0.167821,0.291952 -0.343746,0.577496 -0.526942,0.860051 -0.132732,-0.12281 -0.220506,-0.242103 -0.307095,-0.400507 -0.02452,-0.04442 -0.04905,-0.08885 -0.07431,-0.134618 -0.03863,-0.07091 -0.03863,-0.07091 -0.07805,-0.143253 -0.05461,-0.09891 -0.109287,-0.197781 -0.16402,-0.296622 -0.02661,-0.04813 -0.05322,-0.09627 -0.08064,-0.145861 -0.09342,-0.167555 -0.189722,-0.333184 -0.287775,-0.498058 -0.178867,-0.301398 -0.354756,-0.604433 -0.52973,-0.908108 -0.02759,-0.04788 -0.05518,-0.09576 -0.0836,-0.14509 -0.05656,-0.09819 -0.11312,-0.196385 -0.169668,-0.294585 C 10.110558,17.647422 9.9741904,17.411138 9.8378371,17.174847 9.7837822,17.081154 9.7297281,16.98746 9.675675,16.893765 9.6489182,16.847387 9.6221614,16.801009 9.5945939,16.753225 9.3513507,16.331603 9.3513507,16.331603 9.2702592,16.191042 9.2162432,16.097417 9.1622246,16.003793 9.1082026,15.910172 8.9724525,15.674905 8.83676,15.439605 8.7011816,15.204239 8.4407574,14.752271 8.179602,14.300771 7.9162156,13.850522 7.6817633,13.449658 7.4507216,13.046919 7.2207895,12.643454 6.9958719,12.248887 6.7684198,11.855871 6.5390936,11.463846 6.2729652,11.008756 6.0097855,10.55198 5.7466422,10.09516 5.6113812,9.8603998 5.4759529,9.6257365 5.3405401,9.3910636 5.2864852,9.2973702 5.2324312,9.2036768 5.178378,9.1099826 5.1516212,9.0636042 5.1248645,9.0172258 5.0972969,8.9694421 1.6108107,2.9261993 1.6108107,2.9261993 1.5296874,2.7855848 1.4757749,2.692137 1.4218616,2.5986897 1.3679475,2.5052428 1.2306395,2.2672506 1.0933467,2.0292497 0.95608101,1.7912331 0.92838008,1.7432103 0.9006792,1.6951875 0.87213888,1.6457095 0.81746364,1.5509029 0.7628108,1.4560834 0.70818196,1.36125 0.58253855,1.1432518 0.45649415,0.92551544 0.32922295,0.70846292 0.3068281,0.67016381 0.28443325,0.63186474 0.26135978,0.59240507 0.21976703,0.52134505 0.17802441,0.45037251 0.13610641,0.3795039 0,0.14666137 0,0.14666137 0,0.05052377 Z"
     fill="#40b783"
     id="path1"
     style="stroke-width:1" />
  <path
     d="m 4.8,0.05052377 c 0.5762423,-0.00902 1.1524678,-0.015933 1.7287663,-0.020165 0.2676043,-0.00203 0.5351604,-0.00479 0.8027369,-0.0092 0.2582386,-0.00423 0.5164309,-0.00656 0.7747015,-0.00757 0.098522,-7.191e-4 0.1970415,-0.00212 0.2955438,-0.00422 0.1380497,-0.00283 0.2759078,-0.00321 0.4139818,-0.00303 0.040716,-0.0014 0.081432,-0.0028 0.1233814,-0.00424 0.1171633,0.00166 0.205035,0.00739 0.314942,0.048423 0.1130551,0.117256 0.1860653,0.24466642 0.2594595,0.38918916 0.025795,0.0434797 0.05159,0.0869595 0.078167,0.13175675 0.031878,0.0578615 0.031878,0.0578615 0.0644,0.11689188 0.024245,0.0437271 0.04849,0.0874542 0.073469,0.13250633 0.037548,0.0681932 0.037548,0.0681932 0.075855,0.13776392 0.1726167,0.31087249 0.3455128,0.62124819 0.5270268,0.92702699 0.17884,0.3014142 0.354736,0.6044433 0.52973,0.908108 0.04087,0.070832 0.04087,0.070832 0.08256,0.1430955 0.130425,0.2261874 0.2606,0.4525088 0.390067,0.679246 0.04442,0.077753 0.08891,0.1554627 0.133423,0.2331589 0.056,0.097794 0.111857,0.195672 0.167546,0.2936444 0.02538,0.044264 0.05076,0.088527 0.07691,0.1341321 0.03321,0.058222 0.03321,0.058222 0.06709,0.1176203 0.07288,0.1162854 0.154233,0.2206383 0.24186,0.3261297 0.01779,-0.031244 0.03558,-0.062488 0.05391,-0.094679 0.311244,-0.5463812 0.622926,-1.0924253 0.940689,-1.6350507 0.218652,-0.3734039 0.434401,-0.7483834 0.648648,-1.1243242 0.226494,-0.397235 0.453979,-0.7938564 0.683784,-1.18918915 0.03767,-0.0650524 0.03767,-0.0650524 0.0761,-0.13141889 0.02333,-0.0400236 0.04666,-0.0800473 0.07069,-0.12128379 0.02028,-0.0348674 0.04056,-0.0697348 0.06146,-0.10565878 0.02937,-0.0473678 0.02937,-0.0473678 0.05932,-0.0956926 0.01389,-0.0301092 0.02778,-0.0602184 0.0421,-0.09124 0.146581,-0.1367139 0.318463,-0.1042807 0.511228,-0.1013698 0.04346,-2.53e-5 0.08692,-5.05e-5 0.131703,-7.66e-5 0.143913,1.207e-4 0.287788,0.00147 0.431694,0.00282 0.09968,3.226e-4 0.199351,5.688e-4 0.299027,7.417e-4 0.262547,6.609e-4 0.525078,0.00236 0.787618,0.00427 0.267822,0.00177 0.535647,0.00256 0.803473,0.00343 0.525655,0.00186 1.051298,0.00481 1.576943,0.00845 -0.05462,0.1029077 -0.1093,0.2057852 -0.16401,0.30864654 -0.0153,0.0288357 -0.0306,0.0576714 -0.04636,0.0873809 -0.133592,0.25099797 -0.274723,0.49701654 -0.419362,0.74181037 -0.05284,0.090019 -0.105654,0.1800536 -0.158446,0.2701013 -0.04032,0.068721 -0.04032,0.068721 -0.08146,0.1388302 -0.135443,0.2315827 -0.269412,0.4640106 -0.403336,0.6964738 -0.0269,0.046674 -0.0538,0.093349 -0.08151,0.1414379 -0.05459,0.094728 -0.109164,0.1894594 -0.163735,0.2841955 -0.135261,0.23476 -0.27069,0.4694235 -0.406102,0.7040962 -0.05405,0.093693 -0.108109,0.1873869 -0.162162,0.2810811 -0.756757,1.3117114 -1.513514,2.6234234 -2.270271,3.9351348 -0.02676,0.046385 -0.05352,0.092771 -0.08109,0.1405617 -0.05402,0.093625 -0.108035,0.1872485 -0.162057,0.2808701 -0.13575,0.235267 -0.271442,0.4705669 -0.407021,0.7059329 -0.284822,0.4943109 -0.570902,0.9878352 -0.858994,1.4802468 -0.214352,0.367085 -0.424969,0.736242 -0.635313,1.105629 -0.220531,0.387099 -0.44452,0.771669 -0.677145,1.151624 -0.120892,-0.107843 -0.191677,-0.22712 -0.270946,-0.367737 -0.02746,-0.04842 -0.05491,-0.09684 -0.0832,-0.146727 -0.0145,-0.02579 -0.02899,-0.05159 -0.04393,-0.07816 -0.06159,-0.109579 -0.123645,-0.218895 -0.185662,-0.328234 -0.03207,-0.05655 -0.0641,-0.113112 -0.09612,-0.169689 -0.154751,-0.273397 -0.311551,-0.545591 -0.468799,-0.817557 -0.0536,-0.09279 -0.107209,-0.185585 -0.160811,-0.278378 -0.02648,-0.04582 -0.05296,-0.09164 -0.08024,-0.138852 C 10.550471,10.038188 10.469136,9.8970692 10.387837,9.7559285 10.127377,9.3038364 9.8661523,8.8522321 9.6027023,8.4018745 9.36825,8.0010097 9.1372083,7.5982716 8.9072764,7.1948065 8.6823586,6.8002388 8.4549066,6.4072226 8.2255804,6.0151984 7.959452,5.5601083 7.6962722,5.1033321 7.433129,4.6465118 7.2978679,4.4117516 7.1624394,4.1770881 7.0270269,3.9424154 6.972972,3.8487222 6.9189179,3.7550285 6.8648647,3.6613343 6.838108,3.614956 6.8113512,3.5685776 6.7837836,3.5207938 6.5405404,3.0991722 6.5405404,3.0991722 6.4594488,2.9586106 6.4054332,2.8649854 6.3514143,2.7713621 6.2973922,2.6777407 6.1616421,2.4424736 6.0259499,2.2071735 5.8903716,1.9718074 5.8359267,1.8773236 5.7814785,1.7828416 5.727027,1.6883615 5.700629,1.642544 5.6742312,1.5967266 5.6470333,1.5495207 5.5087822,1.3098355 5.3699219,1.0705259 5.2300675,0.8317737 5.2018928,0.7836464 5.1737181,0.73551909 5.1446896,0.68593337 5.0906313,0.59369467 5.0364888,0.50150523 4.9822529,0.40937087 4.9582868,0.36849017 4.9343207,0.32760947 4.9096284,0.28548997 4.8883937,0.24939274 4.867159,0.21329551 4.8452808,0.17610442 4.8,0.09376697 4.8,0.09376697 4.8,0.05052377 Z"
     fill="#34495e"
     id="path2"
     style="stroke-width:1" />
</svg>
